<svg width="24" height="24" viewBox="0 0 24 24" fill="none" xmlns="http://www.w3.org/2000/svg">
<g clip-path="url(#clip0_1385_25760)">
<rect width="24" height="24" fill="#F2F0EB"/>
<path d="M17.1445 7.808L12.8555 5.23664C12.5971 5.08166 12.3002 5 12 5C11.6998 5 11.4029 5.08166 11.1445 5.23664L6.85554 7.808C6.32745 8.12463 6 8.71456 6 9.34615V14.6539C6 15.2854 6.32745 15.8754 6.85554 16.192L11.1445 18.7634C11.4029 18.9183 11.6998 19 12 19C12.3002 19 12.5971 18.9183 12.8555 18.7634L17.1445 16.192C17.6726 15.8754 18 15.2854 18 14.6539V9.34615C18 8.71289 17.6726 8.12463 17.1445 7.808ZM16.5345 9.34615V13.9239L12.7335 11.6459V6.91977L16.4125 9.12451C16.488 9.1695 16.5361 9.25449 16.5361 9.34615H16.5345ZM7.46549 9.34615C7.46549 9.25616 7.51204 9.17117 7.58908 9.12451L11.2681 6.91977V11.6442L7.46549 13.9223V9.34448V9.34615Z" fill="#303A1F"/>
</g>
<defs>
<clipPath id="clip0_1385_25760">
<rect width="24" height="24" rx="12" fill="white"/>
</clipPath>
</defs>
</svg>
