<svg width="24" height="24" viewBox="0 0 24 24" fill="none" xmlns="http://www.w3.org/2000/svg">
<rect width="24" height="24" fill="white"/>
<path d="M18.7427 13.2009C17.7385 11.4128 14.3437 11.0567 12.5688 11.5203C12.302 9.58379 10.8455 7.10432 9.07387 6.28589C7.60492 5.60722 6.23926 6.13604 6.06929 7.88108C5.85094 10.116 6.23403 12.6935 6.06276 14.9661L6.16408 15.261L12.4014 18.9245C12.6629 19.0837 12.8257 18.9574 13.0584 18.8539C14.022 18.4232 17.4953 16.3724 18.2419 15.7065C18.9669 15.0595 19.25 14.1046 18.7433 13.2022L18.7427 13.2009ZM11.5005 17.0047L7.91283 14.8606L11.5005 12.916V17.0047ZM11.5077 11.6735L7.13489 14.1127C7.27152 12.457 6.95053 10.4956 7.13489 8.8769C7.21137 8.2063 7.66376 7.37981 8.43256 7.43357C9.96361 7.54175 11.6947 10.1798 11.5077 11.6735Z" fill="black"/>
</svg>
