<svg width="24" height="24" viewBox="0 0 24 24" fill="none" xmlns="http://www.w3.org/2000/svg">
<rect width="24" height="24" rx="1.125" fill="white"/>
<path fill-rule="evenodd" clip-rule="evenodd" d="M11.694 4.266L6.975 11.777C6.921 11.822 6.884 11.883 6.867 11.949L6.72 12.183L12 15.238L17.28 12.183L12.306 4.267C12.291 4.231 12.271 4.198 12.245 4.17L12 3.78L11.755 4.17C11.729 4.198 11.709 4.231 11.694 4.266ZM11.67 5.546L8.097 11.231L11.67 9.53V5.546ZM11.67 10.261L7.855 12.077L11.67 14.285V10.261ZM12.33 14.285V10.268L16.082 12.114L12.33 14.285ZM12.33 9.533V5.546L15.956 11.316L12.33 9.533ZM11.962 16.133L6.72 13.1L12 20.28L17.28 13.1L12.038 16.133C12.026 16.131 12.013 16.131 12 16.131C11.987 16.131 11.974 16.131 11.962 16.133ZM11.67 16.727L9.122 15.252L11.67 18.717V16.727ZM12.33 18.717L14.878 15.252L12.33 16.727V18.717Z" fill="#333333"/>
</svg>
