<svg width="512" height="512" viewBox="0 0 512 512" fill="none" xmlns="http://www.w3.org/2000/svg">
<rect width="512" height="512" rx="24" fill="white"/>
<path fill-rule="evenodd" clip-rule="evenodd" d="M249.482 91.0117L148.8 251.24C147.647 252.203 146.853 253.498 146.494 254.911L143.359 259.899L255.999 325.083L368.639 259.899L262.525 91.0258C262.214 90.2589 261.771 89.5593 261.224 88.955L255.999 80.6401L250.767 88.9664C250.229 89.5644 249.792 90.2551 249.482 91.0117ZM248.961 118.305L172.745 239.597L248.961 203.316V118.305ZM248.961 218.91L167.582 257.648L248.961 304.743V218.91ZM263.041 304.741V219.053L343.079 258.423L263.041 304.741ZM263.041 203.361V118.31L340.393 241.411L263.041 203.361ZM255.183 344.168L143.359 279.456L255.999 432.64L368.639 279.456L256.816 344.168C256.549 344.137 256.277 344.121 256.001 344.121C255.724 344.121 255.452 344.137 255.183 344.168ZM248.961 356.835L194.605 325.379L248.961 399.301V356.835ZM263.041 399.296L317.394 325.379L263.041 356.833V399.296Z" fill="#333333"/>
</svg>
