<svg width="24" height="24" viewBox="0 0 24 24" fill="none" xmlns="http://www.w3.org/2000/svg">
<rect width="24" height="24" fill="#0080BC"/>
<g clip-path="url(#clip0_1717_2520)">
<path d="M6.94374 10.5816C7.0923 10.8968 7.46369 11.5272 7.46369 11.5272L11.7161 4.5L7.5751 7.39246C7.3337 7.55933 7.12944 7.78183 6.98088 8.04141C6.59092 8.83869 6.59092 9.76576 6.94374 10.5816Z" fill="#F6F6F6"/>
<path d="M5.27312 12.8806C5.36597 14.2342 6.05304 15.495 7.13007 16.3108L11.7167 19.4999C11.7167 19.4999 8.83846 15.3652 6.42443 11.249C6.18303 10.8225 6.0159 10.3405 5.94162 9.83985C5.90448 9.61736 5.90448 9.39486 5.94162 9.17236C5.88592 9.28361 5.75593 9.52465 5.75593 9.52465C5.51453 10.0253 5.3474 10.563 5.25455 11.1192C5.19885 11.7125 5.19885 12.3059 5.27312 12.8806Z" fill="#F6F6F6"/>
<path d="M16.9716 13.4371C16.823 13.1219 16.4516 12.4915 16.4516 12.4915L12.1992 19.5001L16.3588 16.6262C16.6002 16.4593 16.8044 16.2368 16.953 15.9772C17.3244 15.18 17.343 14.2529 16.9716 13.4371Z" fill="#F6F6F6"/>
<path d="M18.6624 11.1193C18.5695 9.76576 17.8824 8.50494 16.8054 7.68912L12.2188 4.5C12.2188 4.5 15.097 8.63473 17.511 12.7509C17.7524 13.1774 17.9196 13.6595 17.9939 14.1601C18.031 14.3826 18.031 14.6051 17.9939 14.8276C18.0496 14.7163 18.1795 14.4753 18.1795 14.4753C18.421 13.9747 18.5881 13.437 18.6809 12.8993C18.7181 12.2874 18.7181 11.7126 18.6624 11.1193Z" fill="#F6F6F6"/>
<path d="M6.98151 8.04141C7.13007 7.78183 7.31576 7.55933 7.57574 7.39246L11.7167 4.5L7.46432 11.5087C7.46432 11.5087 7.09293 10.8782 6.94437 10.563C6.59155 9.76576 6.59155 8.83869 6.98151 8.04141ZM5.27312 12.8807C5.36597 14.2342 6.05304 15.4951 7.13007 16.3109L11.7167 19.5C11.7167 19.5 8.83846 15.3653 6.42443 11.2491C6.18303 10.8226 6.0159 10.3405 5.94162 9.83993C5.90448 9.61743 5.90448 9.39493 5.94162 9.17244C5.88592 9.28368 5.75593 9.52472 5.75593 9.52472C5.51453 10.0253 5.3474 10.563 5.25455 11.1193C5.19885 11.7126 5.19885 12.3059 5.27312 12.8807ZM16.9719 13.437C16.8233 13.1218 16.4519 12.4913 16.4519 12.4913L12.1995 19.5L16.3591 16.6261C16.6005 16.4592 16.8048 16.2367 16.9533 15.9771C17.3247 15.1799 17.3433 14.2528 16.9719 13.437ZM18.6431 11.1378C18.5503 9.7843 17.8632 8.52349 16.7862 7.70766L12.2181 4.5C12.2181 4.5 15.0964 8.63473 17.5104 12.7509C17.7518 13.1774 17.9189 13.6595 17.9932 14.1601C18.0303 14.3826 18.0303 14.6051 17.9932 14.8276C18.0489 14.7163 18.1789 14.4753 18.1789 14.4753C18.4203 13.9747 18.5874 13.437 18.6803 12.8993C18.7174 12.2874 18.7174 11.7126 18.6431 11.1378Z" fill="#F6F6F6"/>
</g>
<defs>
<clipPath id="clip0_1717_2520">
<rect width="13.5" height="15" fill="white" transform="translate(5.21875 4.5)"/>
</clipPath>
</defs>
</svg>
