<svg width="24" height="24" viewBox="0 0 24 24" fill="none" xmlns="http://www.w3.org/2000/svg">
<rect width="24" height="24" fill="white"/>
<path d="M11.9007 18.9999C15.7119 18.9999 18.8014 15.9104 18.8014 12.0992C18.8014 8.28804 15.7119 5.19849 11.9007 5.19849C8.08956 5.19849 5 8.28804 5 12.0992C5 15.9104 8.08956 18.9999 11.9007 18.9999Z" fill="#3280F4"/>
<path d="M15.4255 14.9291C18.1673 14.9291 20.39 12.7064 20.39 9.96454C20.39 7.2227 18.1673 5 15.4255 5C12.6836 5 10.4609 7.2227 10.4609 9.96454C10.4609 12.7064 12.6836 14.9291 15.4255 14.9291Z" fill="#3280F4"/>
<path d="M15.6243 14.234C18.092 14.234 20.0924 12.2336 20.0924 9.76594C20.0924 7.29828 18.092 5.29785 15.6243 5.29785C13.1567 5.29785 11.1562 7.29828 11.1562 9.76594C11.1562 12.2336 13.1567 14.234 15.6243 14.234Z" fill="white"/>
<path d="M16.4211 12.6455C18.2308 12.6455 19.6978 11.1785 19.6978 9.3689C19.6978 7.55927 18.2308 6.09229 16.4211 6.09229C14.6115 6.09229 13.1445 7.55927 13.1445 9.3689C13.1445 11.1785 14.6115 12.6455 16.4211 12.6455Z" fill="#3280F4"/>
<path d="M16.3028 8.39565C16.623 8.76665 17.0313 8.86322 17.5313 8.77547C16.8414 9.23283 16.8417 9.86186 16.9568 10.523C16.9415 10.5292 16.9263 10.5355 16.911 10.5418C16.8809 10.4885 16.8456 10.4373 16.8215 10.3814C16.7228 10.1522 16.6505 9.90863 16.5252 9.69464C16.374 9.43649 16.1586 9.3839 15.8567 9.47422C15.7003 9.52101 15.544 9.56804 15.3594 9.58526C15.4198 9.54196 15.4767 9.49251 15.5413 9.45637C15.8793 9.26725 16.1119 9.01262 16.0727 8.61539C16.0562 8.44829 15.9833 8.2883 15.9503 8.12213C15.9318 8.02888 15.9423 7.92961 15.9771 7.8396C16.0831 8.02113 16.189 8.20269 16.3028 8.39565Z" fill="white"/>
<path d="M10.1638 17.4113C12.9056 17.4113 15.1283 15.1886 15.1283 12.4467C15.1283 9.70488 12.9056 7.48218 10.1638 7.48218C7.42192 7.48218 5.19922 9.70488 5.19922 12.4467C5.19922 15.1886 7.42192 17.4113 10.1638 17.4113Z" fill="#3280F4"/>
<path d="M10.5602 16.5176C12.973 16.5176 14.929 14.5616 14.929 12.1488C14.929 9.736 12.973 7.78003 10.5602 7.78003C8.14738 7.78003 6.19141 9.736 6.19141 12.1488C6.19141 14.5616 8.14738 16.5176 10.5602 16.5176Z" fill="white"/>
<path d="M11.1555 15.1277C12.9651 15.1277 14.4321 13.6607 14.4321 11.8511C14.4321 10.0415 12.9651 8.57446 11.1555 8.57446C9.34589 8.57446 7.87891 10.0415 7.87891 11.8511C7.87891 13.6607 9.34589 15.1277 11.1555 15.1277Z" fill="#3280F4"/>
<path d="M11.041 10.8778C11.3612 11.2488 11.7696 11.3454 12.2696 11.2576C11.5796 11.715 11.5799 12.344 11.695 13.0051C11.6798 13.0114 11.6645 13.0177 11.6493 13.024C11.6192 12.9706 11.5839 12.9195 11.5598 12.8636C11.4611 12.6344 11.3888 12.3908 11.2635 12.1768C11.1123 11.9187 10.8969 11.8661 10.5949 11.9564C10.4386 12.0032 10.2823 12.0502 10.0977 12.0674C10.1581 12.0241 10.2149 11.9747 10.2796 11.9385C10.6175 11.7494 10.8502 11.4948 10.8109 11.0975C10.7944 10.9304 10.7216 10.7705 10.6886 10.6043C10.67 10.511 10.6805 10.4118 10.7154 10.3218C10.8213 10.5033 10.9273 10.6848 11.041 10.8778Z" fill="white"/>
</svg>
