<svg width="24" height="24" viewBox="0 0 24 24" fill="none" xmlns="http://www.w3.org/2000/svg">
<rect width="24" height="24" fill="white"/>
<path d="M17.1525 9.53413C17.0787 9.40202 16.9997 9.27247 16.9195 9.14549C17.7948 8.51571 18.8411 8.10399 19.9767 7.99496V5C18.2933 5.47458 16.9026 6.63023 16.1218 8.14631C14.946 6.93935 13.2951 6.18772 11.468 6.18772C7.89667 6.18644 5 9.05442 5 12.5932C5 16.132 7.89667 19 11.468 19C15.0393 19 17.9359 16.1307 17.9359 12.5932C17.9359 11.8711 17.8129 11.1785 17.5915 10.5307C17.7598 10.5577 17.9295 10.5936 18.0965 10.6385C18.4112 10.7219 18.709 10.836 18.9939 10.9694L20 9.24425C19.012 9.07109 18.0318 9.18525 17.1512 9.53413H17.1525ZM15.2814 14.2158V14.2414C14.8671 14.5223 14.3064 14.6454 13.7936 14.5659C13.2523 14.4774 12.7888 14.1273 12.3355 13.863C11.9018 13.618 11.4382 13.3885 10.9371 13.2935C9.90245 13.0999 9.03488 13.6976 8.29679 14.2671C8.07018 14.4428 7.80344 14.6095 7.49914 14.6172C5.9621 14.6788 6.02167 12.0968 6.17835 11.2798C6.25734 10.8937 6.50337 10.2088 6.9268 9.8394C7.1534 9.63802 7.43828 9.53156 7.76459 9.62006C7.97177 9.67265 8.14011 9.82144 8.2683 9.9792C8.43664 10.1896 8.54411 10.4794 8.84971 10.55C8.98826 10.5846 9.14624 10.55 9.27314 10.4884C9.63829 10.3217 9.90375 10.0138 10.1899 9.77655C10.7804 9.27632 11.4719 8.9082 12.2889 8.8197C13.2355 8.7235 14.2403 8.92487 15.0186 9.4251C16.6152 10.4615 16.9208 13.1127 15.2853 14.2106L15.2814 14.2158Z" fill="#1F1F1F"/>
</svg>
