<svg width="24" height="24" viewBox="0 0 24 24" fill="none" xmlns="http://www.w3.org/2000/svg">
<rect width="24" height="24" fill="white"/>
<path d="M18.3178 5.5H13.5778C13.5388 5.5 13.5076 5.5312 13.5076 5.57019V8.68176C13.5076 8.72076 13.531 8.74416 13.57 8.75195C13.7493 8.77535 14.0377 8.79095 14.2872 8.79875C14.4119 8.79875 14.5211 8.80654 14.6146 8.80654H14.7316C14.7706 8.80654 14.8017 8.77535 14.8017 8.73635V6.86473C14.8017 6.82574 14.8329 6.79454 14.8719 6.79454H17.0236C17.0626 6.79454 17.0938 6.82574 17.0938 6.86473V17.1353C17.0938 17.1743 17.0626 17.2055 17.0236 17.2055H14.8485C14.8485 17.2055 14.8485 17.2055 14.8407 17.2055C14.8095 17.2055 14.7783 17.1821 14.7783 17.1509C14.7783 17.1431 14.7783 17.1431 14.7783 17.1353C14.599 15.3026 13.3127 13.7897 11.6209 13.2438C11.1844 13.1035 10.7244 13.0333 10.2566 13.0333H8.11272C8.07376 13.0333 8.04257 13.0645 8.04257 13.1035V14.2576C8.04257 14.2966 8.07376 14.3278 8.11272 14.3278H9.56279C9.56279 14.3278 9.57839 14.3278 9.61736 14.3278C9.82786 14.3278 10.6309 14.3356 10.9115 14.3902L10.9505 14.398C11.0518 14.4214 11.1454 14.4448 11.2389 14.476C11.8392 14.6632 12.3772 15.0297 12.7748 15.521C13.2503 16.0981 13.5076 16.8233 13.5076 17.572V18.4298C13.5076 18.4688 13.5388 18.5 13.5778 18.5H18.3256C18.3645 18.5 18.3957 18.4688 18.3957 18.4298V5.57019C18.3879 5.5312 18.3567 5.5 18.3178 5.5ZM16.2986 9.53959H14.7939C14.7939 9.53959 14.5601 9.53959 14.2794 9.5318C13.9987 9.524 13.6791 9.5084 13.4998 9.47721L13.453 9.46161C13.1724 9.39922 12.8995 9.29784 12.6422 9.16527C12.2524 8.96251 11.9016 8.68176 11.6209 8.33863C11.1532 7.76155 10.8881 7.0285 10.8881 6.28765V5.57019C10.8881 5.5312 10.8569 5.5 10.8179 5.5H6.07017C6.03119 5.5 6 5.5312 6 5.57019V18.4298C6 18.4688 6.03119 18.5 6.07017 18.5H10.8179C10.8569 18.5 10.8881 18.4688 10.8881 18.4298V15.1701C10.8881 15.1311 10.8647 15.1077 10.8258 15.0999C10.6075 15.0687 10.2177 15.0531 9.92921 15.0453H9.67973C9.64076 15.0453 9.60957 15.0765 9.60957 15.1155V17.1275C9.60957 17.1665 9.57839 17.1977 9.53941 17.1977H7.3877C7.34872 17.1977 7.31753 17.1665 7.31753 17.1275V6.86473C7.31753 6.82574 7.34872 6.79454 7.3877 6.79454H9.57839C9.60957 6.79454 9.64076 6.81794 9.64855 6.84913C9.84345 8.40882 10.8258 9.72675 12.1901 10.3818C12.5877 10.5768 13.0242 10.7094 13.4764 10.7795C13.6947 10.8107 13.9286 10.8341 14.1547 10.8341H16.2986C16.3376 10.8341 16.3687 10.8029 16.3687 10.7639V9.60978C16.3687 9.57078 16.3376 9.53959 16.2986 9.53959Z" fill="black"/>
</svg>
