<svg width="24" height="24" viewBox="0 0 24 24" fill="none" xmlns="http://www.w3.org/2000/svg">
<rect width="24" height="24" fill="black"/>
<path d="M11.3875 6.51334C10.9721 6.53789 10.0995 7.34351 9.80895 7.36712C9.48791 7.39356 9.15734 6.87789 8.90299 6.93362C8.39713 7.04506 7.34732 8.08206 6.73572 8.22939L6.71571 14.594C6.72143 14.9519 7.15869 15.1097 7.43306 15.2995C8.88108 16.3025 10.4872 17.1516 12.0086 18.0299C13.8082 17.0524 15.5534 15.9719 17.2482 14.8254L17.2796 8.22845L14.978 6.91001L9.53078 10.1967V13.3152L12.0077 14.6969L14.3435 13.3615C14.5836 13.0952 14.3702 10.7851 14.4217 10.259C14.334 10.0031 12.9803 9.43167 12.726 9.20123C12.6631 9.14456 12.5631 9.05767 12.6269 8.96984C12.6812 8.89523 14.0787 8.31062 14.2769 8.13306L16.0602 9.22012C16.0602 10.8927 16.2374 12.5587 16.1317 14.2379L12 16.617C10.5492 15.9804 9.21546 15.0228 7.81411 14.2587L7.78363 9.17195L15.0714 5.02301C16.4384 5.64445 17.6245 6.58606 18.9181 7.33123C19.0153 10.1759 19.0458 13.0111 18.8981 15.8473L11.9905 20L5.09907 15.8161L5 15.5366L5.05144 7.3605L8.86869 5.00034C9.12876 4.97484 11.477 6.39339 11.3875 6.51145V6.51334Z" fill="#FEFEFE"/>
</svg>
