<svg width="24" height="24" viewBox="0 0 24 24" fill="none" xmlns="http://www.w3.org/2000/svg">
<rect width="24" height="24" fill="#111827"/>
<path fill-rule="evenodd" clip-rule="evenodd" d="M4.8479 9.95348C3.71736 11.0841 3.71736 12.9171 4.84791 14.0477L9.95264 19.1526C11.0831 20.2831 12.9161 20.2831 14.0467 19.1526L19.1521 14.047C20.2826 12.9164 20.2826 11.0834 19.1521 9.95282L14.0473 4.84793C12.9168 3.71736 11.0838 3.71736 9.9533 4.84793L4.8479 9.95348ZM8.00966 10.4828C7.80749 11.0182 7.7064 11.5911 7.7064 12.2014H8.49264C8.49264 11.6997 8.57314 11.2298 8.73413 10.7917C8.89512 10.3537 9.12351 9.96799 9.41929 9.63476C9.71507 9.30154 10.067 9.04132 10.4751 8.85411C10.8869 8.6669 11.3437 8.57331 11.8454 8.57331C12.3471 8.57331 12.817 8.6669 13.255 8.85411C13.6931 9.04506 14.0768 9.30715 14.4063 9.64038C14.7395 9.97361 14.9997 10.3593 15.1869 10.7973C15.3741 11.2354 15.4677 11.7034 15.4677 12.2014C15.4677 12.6994 15.3741 13.1655 15.1869 13.5998C14.9997 14.0379 14.7395 14.4235 14.4063 14.7568C14.0768 15.09 13.6931 15.3502 13.255 15.5374C12.817 15.7284 12.3471 15.8238 11.8454 15.8238C11.5758 15.8238 11.3006 15.7901 11.0198 15.7227C10.7428 15.6554 10.5088 15.5505 10.3178 15.4082C10.1306 15.266 10.037 15.0825 10.037 14.8579C10.037 14.6819 10.0969 14.5228 10.2167 14.3805C10.3365 14.2382 10.4863 14.1671 10.666 14.1671H13.8672L13.9626 13.5324H13.3224C13.5508 13.3827 13.7324 13.1749 13.8672 12.909C14.0057 12.6432 14.075 12.3493 14.075 12.0273C14.075 11.6192 13.9739 11.2448 13.7717 10.904C13.5733 10.5671 13.3056 10.2975 12.9686 10.0953C12.6316 9.89685 12.2572 9.79764 11.8454 9.79764C11.4335 9.79764 11.0573 9.89685 10.7166 10.0953C10.3796 10.2975 10.11 10.5671 9.90788 10.904C9.70945 11.2448 9.61023 11.6192 9.61023 12.0273C9.61023 12.3568 9.6795 12.6469 9.81803 12.8978C9.96033 13.1487 10.1493 13.3508 10.3852 13.5043C10.1718 13.5231 9.97903 13.6017 9.80679 13.7402C9.63457 13.8788 9.49791 14.051 9.39682 14.2569C9.29948 14.4666 9.25081 14.68 9.25081 14.8972C9.25081 15.1705 9.32569 15.412 9.47545 15.6217C9.62895 15.8351 9.83113 16.0148 10.0819 16.1608C10.3365 16.3068 10.6173 16.4173 10.9244 16.4922C11.2314 16.5708 11.5384 16.6101 11.8454 16.6101C12.4519 16.6101 13.021 16.4959 13.5527 16.2675C14.0843 16.0429 14.5523 15.7284 14.9567 15.324C15.361 14.9234 15.6774 14.4554 15.9058 13.9199C16.1379 13.3883 16.254 12.8154 16.254 12.2014C16.254 11.5911 16.1398 11.0182 15.9114 10.4828C15.683 9.95115 15.3666 9.48313 14.9623 9.07876C14.5579 8.6744 14.0881 8.35802 13.5527 8.12963C13.021 7.90124 12.4519 7.78704 11.8454 7.78704C11.2389 7.78704 10.6829 7.90124 10.1774 8.12963C9.67201 8.35802 9.23396 8.6744 8.8633 9.07876C8.49639 9.48313 8.21184 9.95115 8.00966 10.4828ZM10.4863 12.8416C10.3253 12.6282 10.2448 12.3736 10.2448 12.0778C10.2448 11.7895 10.316 11.5237 10.4582 11.2803C10.6005 11.037 10.7914 10.8423 11.0311 10.6962C11.2744 10.5502 11.5459 10.4772 11.8454 10.4772C12.1412 10.4772 12.4089 10.5484 12.6485 10.6906C12.8918 10.8367 13.0847 11.0295 13.2269 11.2691C13.3692 11.5125 13.4403 11.782 13.4403 12.0778C13.4403 12.3923 13.3673 12.6563 13.2213 12.8697C13.079 13.0831 12.8918 13.2423 12.6597 13.3471C12.4276 13.4557 12.1786 13.51 11.9128 13.51C11.6357 13.51 11.368 13.4519 11.1097 13.3359C10.8551 13.2198 10.6473 13.0551 10.4863 12.8416Z" fill="#F5F3EF"/>
</svg>
